# xmcd
#
# Track frame offsets:
#	182
#	20912
#	41097
#	60342
#	79732
#	98255
#	111545
#	129027
#	150612
#	171910
#	191135
#	212732
#	232750
#
# Disc length: 3356 seconds
#
# Revision: 0
# Processed by: cddbd v1.5.2PL0 Copyright (c) Steve Scherf et al.
# Submitted via: audiograbber 1.83.01
#
DISCID=a20d1a0d
DTITLE=Jordan Hill - Jordan Hill
DYEAR=1996
DGENRE=Country
TTITLE0=For The Love Of You
TTITLE1=How Many Times
TTITLE2=Slip Away
TTITLE3=Got To Be Real
TTITLE4=You Got No Right
TTITLE5=I Just Had To Hear Your Voice
TTITLE6=Ride
TTITLE7=Too Much Heaven
TTITLE8=Never Should Have Let You Go
TTITLE9=Make It Right
TTITLE10=Until The End Of Time
TTITLE11=Remember Me This Way
TTITLE12=For The Love Of You (Dance Mix)
EXTD=
EXTT0=
EXTT1=
EXTT2=
EXTT3=
EXTT4=
EXTT5=
EXTT6=
EXTT7=
EXTT8=
EXTT9=
EXTT10=
EXTT11=
EXTT12=
PLAYORDER=
